# xmcd
#
# Track frame offsets: 
#        150
#        13628
#        33789
#        48044
#        69407
#        84190
#        100746
#        116394
#        132796
#        151670
#        173948
#        190224
#
# Disc length: 2814 seconds
#
# Revision: 0
# Processed by: cddbd v1.5PL3 Copyright (c) Steve Scherf et al.
# Submitted via: ExactAudioCopy v0.95a4
#
DISCID=800afc0c
DTITLE=Grandstaff - Circles
DYEAR=2003
DGENRE=Country
TTITLE0=Some Kind Of Good
TTITLE1=One Of Those Mornings
TTITLE2=Tears Only Run One Way
TTITLE3=How Are Things In Clay, Kentucky
TTITLE4=She Don't Love Me More Than NASCAR
TTITLE5=Circles
TTITLE6=These Things I Want
TTITLE7=Cloud 8
TTITLE8=Soul To Keep
TTITLE9=Life's Railway To Heaven
TTITLE10=I Love Everything About You
TTITLE11=Ain't Gonna Worry My Mind
EXTD=
EXTT0=
EXTT1=
EXTT2=
EXTT3=
EXTT4=
EXTT5=
EXTT6=
EXTT7=
EXTT8=
EXTT9=
EXTT10=
EXTT11=
PLAYORDER=
